<mxfile host="65bd71144e">
    <diagram id="uUpp_soFwbhBhmY_cXtg" name="Page-1">
        <mxGraphModel dx="782" dy="1447" grid="1" gridSize="10" guides="1" tooltips="1" connect="1" arrows="1" fold="1" page="1" pageScale="1" pageWidth="850" pageHeight="1100" math="0" shadow="0">
            <root>
                <mxCell id="0"/>
                <mxCell id="1" parent="0"/>
                <mxCell id="2" value="&lt;b&gt;Extraccion&lt;/b&gt;" style="rounded=1;whiteSpace=wrap;html=1;" vertex="1" parent="1">
                    <mxGeometry x="140" y="140" width="130" height="40" as="geometry"/>
                </mxCell>
                <mxCell id="3" value="&lt;b&gt;Preprocesamiento&lt;/b&gt;" style="rounded=1;whiteSpace=wrap;html=1;" vertex="1" parent="1">
                    <mxGeometry x="290" y="140" width="115" height="40" as="geometry"/>
                </mxCell>
                <mxCell id="4" value="&lt;b&gt;Respaldo&lt;/b&gt;" style="rounded=1;whiteSpace=wrap;html=1;" vertex="1" parent="1">
                    <mxGeometry x="425" y="140" width="90" height="40" as="geometry"/>
                </mxCell>
                <mxCell id="5" value="&lt;b&gt;Auditoria&lt;/b&gt;" style="rounded=1;whiteSpace=wrap;html=1;" vertex="1" parent="1">
                    <mxGeometry x="545" y="140" width="75" height="40" as="geometry"/>
                </mxCell>
                <mxCell id="6" value="tabla html" style="text;html=1;align=center;verticalAlign=middle;resizable=0;points=[];autosize=1;strokeColor=none;fillColor=none;" vertex="1" parent="1">
                    <mxGeometry x="35" y="190" width="80" height="30" as="geometry"/>
                </mxCell>
                <mxCell id="8" value="&lt;span style=&quot;color: rgb(0, 0, 0);&quot;&gt;Dataframe&lt;/span&gt;&lt;span style=&quot;font-family: monospace; font-size: 0px; text-align: start;&quot;&gt;%3CmxGraphModel%3E%3Croot%3E%3CmxCell%20id%3D%220%22%2F%3E%3CmxCell%20id%3D%221%22%20parent%3D%220%22%2F%3E%3CmxCell%20id%3D%222%22%20value%3D%22tabla%20html%22%20style%3D%22text%3Bhtml%3D1%3Balign%3Dcenter%3BverticalAlign%3Dmiddle%3Bresizable%3D0%3Bpoints%3D%5B%5D%3Bautosize%3D1%3BstrokeColor%3Dnone%3BfillColor%3Dnone%3B%22%20vertex%3D%221%22%20parent%3D%221%22%3E%3CmxGeometry%20x%3D%2235%22%20y%3D%22190%22%20width%3D%2280%22%20height%3D%2230%22%20as%3D%22geometry%22%2F%3E%3C%2FmxCell%3E%3C%2Froot%3E%3C%2FmxGraphModel%3E&lt;/span&gt;" style="text;html=1;align=center;verticalAlign=middle;resizable=0;points=[];autosize=1;strokeColor=none;fillColor=none;" vertex="1" parent="1">
                    <mxGeometry x="200" y="190" width="80" height="30" as="geometry"/>
                </mxCell>
                <mxCell id="10" value="BD" style="text;html=1;align=center;verticalAlign=middle;resizable=0;points=[];autosize=1;strokeColor=none;fillColor=none;" vertex="1" parent="1">
                    <mxGeometry x="365" y="190" width="40" height="30" as="geometry"/>
                </mxCell>
                <mxCell id="11" value="logs" style="text;html=1;align=center;verticalAlign=middle;resizable=0;points=[];autosize=1;strokeColor=none;fillColor=none;" vertex="1" parent="1">
                    <mxGeometry x="495" y="190" width="50" height="30" as="geometry"/>
                </mxCell>
                <mxCell id="45" value="" style="edgeStyle=none;html=1;" edge="1" parent="1" source="12">
                    <mxGeometry relative="1" as="geometry">
                        <mxPoint x="190" y="-10" as="targetPoint"/>
                    </mxGeometry>
                </mxCell>
                <mxCell id="12" value="Internet" style="shape=rect;fillColor=#1192E8;aspect=fixed;resizable=0;labelPosition=center;verticalLabelPosition=bottom;align=center;verticalAlign=top;strokeColor=none;fontSize=14;" vertex="1" parent="1">
                    <mxGeometry x="46" y="-70" width="48" height="48" as="geometry"/>
                </mxCell>
                <mxCell id="13" value="" style="fillColor=#ffffff;strokeColor=none;dashed=0;outlineConnect=0;html=1;labelPosition=center;verticalLabelPosition=bottom;verticalAlign=top;part=1;movable=0;resizable=0;rotatable=0;shape=mxgraph.ibm_cloud.wikis" vertex="1" parent="12">
                    <mxGeometry width="24" height="24" relative="1" as="geometry">
                        <mxPoint x="12" y="12" as="offset"/>
                    </mxGeometry>
                </mxCell>
                <mxCell id="14" value="&lt;b&gt;web&lt;/b&gt;" style="text;html=1;align=center;verticalAlign=middle;resizable=0;points=[];autosize=1;strokeColor=none;fillColor=none;" vertex="1" parent="1">
                    <mxGeometry x="44" y="-100" width="50" height="30" as="geometry"/>
                </mxCell>
                <mxCell id="15" value="&lt;font style=&quot;font-size: 9px;&quot;&gt;&lt;b&gt;yahoo finances Bitcoin&lt;/b&gt;&lt;/font&gt;" style="text;html=1;align=center;verticalAlign=middle;resizable=0;points=[];autosize=1;strokeColor=none;fillColor=none;" vertex="1" parent="1">
                    <mxGeometry x="10" width="120" height="30" as="geometry"/>
                </mxCell>
                <mxCell id="54" value="" style="edgeStyle=none;html=1;" edge="1" parent="1" source="20" target="50">
                    <mxGeometry relative="1" as="geometry"/>
                </mxCell>
                <mxCell id="20" value="ARQUITECTURA EXTRACCION DE DATOS (SCRAPING)" style="swimlane;" vertex="1" parent="1">
                    <mxGeometry x="140" y="-150" width="480" height="270" as="geometry"/>
                </mxCell>
                <mxCell id="21" value="" style="shape=datastore;whiteSpace=wrap;html=1;" vertex="1" parent="20">
                    <mxGeometry x="287.5" y="65" width="60" height="50" as="geometry"/>
                </mxCell>
                <mxCell id="47" value="" style="edgeStyle=none;html=1;" edge="1" parent="20" source="22">
                    <mxGeometry relative="1" as="geometry">
                        <mxPoint x="280" y="110" as="targetPoint"/>
                    </mxGeometry>
                </mxCell>
                <mxCell id="22" value="Tabla" style="swimlane;" vertex="1" parent="20">
                    <mxGeometry x="30" y="50" width="200" height="140" as="geometry"/>
                </mxCell>
                <mxCell id="32" value="Campos tabla" style="text;html=1;align=center;verticalAlign=middle;resizable=0;points=[];autosize=1;strokeColor=none;fillColor=none;" vertex="1" parent="22">
                    <mxGeometry x="16.25" y="40" width="100" height="30" as="geometry"/>
                </mxCell>
                <mxCell id="35" value="Campos Tabla" style="text;html=1;align=center;verticalAlign=middle;resizable=0;points=[];autosize=1;strokeColor=none;fillColor=none;" vertex="1" parent="22">
                    <mxGeometry x="16.25" y="70" width="100" height="30" as="geometry"/>
                </mxCell>
                <mxCell id="42" value="Campos tabla" style="text;html=1;align=center;verticalAlign=middle;resizable=0;points=[];autosize=1;strokeColor=none;fillColor=none;" vertex="1" parent="22">
                    <mxGeometry x="16.25" y="100" width="100" height="30" as="geometry"/>
                </mxCell>
                <mxCell id="24" value="&lt;i&gt;Transformacion&lt;/i&gt;" style="text;html=1;align=center;verticalAlign=middle;resizable=0;points=[];autosize=1;strokeColor=none;fillColor=none;" vertex="1" parent="20">
                    <mxGeometry x="75" y="190" width="110" height="30" as="geometry"/>
                </mxCell>
                <mxCell id="48" value="" style="edgeStyle=none;html=1;" edge="1" parent="20" target="43">
                    <mxGeometry relative="1" as="geometry">
                        <mxPoint x="350" y="100" as="sourcePoint"/>
                    </mxGeometry>
                </mxCell>
                <mxCell id="25" value="Validacion" style="text;html=1;align=center;verticalAlign=middle;resizable=0;points=[];autosize=1;strokeColor=none;fillColor=none;" vertex="1" parent="20">
                    <mxGeometry x="277.5" y="120" width="80" height="30" as="geometry"/>
                </mxCell>
                <mxCell id="26" value="Monitoreo" style="text;html=1;align=center;verticalAlign=middle;resizable=0;points=[];autosize=1;strokeColor=none;fillColor=none;" vertex="1" parent="20">
                    <mxGeometry x="395" y="120" width="80" height="30" as="geometry"/>
                </mxCell>
                <mxCell id="29" value="&lt;i&gt;Enriquecimiento&lt;/i&gt;" style="shape=step;perimeter=stepPerimeter;fixedSize=1;points=[];whiteSpace=wrap;html=1;" vertex="1" parent="20">
                    <mxGeometry x="200" y="230" width="140" height="30" as="geometry"/>
                </mxCell>
                <mxCell id="28" value="&lt;i&gt;Limpieza&lt;/i&gt;" style="shape=step;perimeter=stepPerimeter;fixedSize=1;points=[];whiteSpace=wrap;html=1;" vertex="1" parent="20">
                    <mxGeometry x="3.75" y="230" width="96.25" height="30" as="geometry"/>
                </mxCell>
                <mxCell id="30" value="&lt;i&gt;Exploracion&lt;/i&gt;" style="shape=step;perimeter=stepPerimeter;fixedSize=1;points=[];whiteSpace=wrap;html=1;" vertex="1" parent="20">
                    <mxGeometry x="91.25" y="230" width="118.75" height="30" as="geometry"/>
                </mxCell>
                <mxCell id="43" value="" style="strokeColor=#999999;verticalLabelPosition=bottom;shadow=0;dashed=0;verticalAlign=top;strokeWidth=2;html=1;shape=mxgraph.mockup.misc.printIcon;" vertex="1" parent="20">
                    <mxGeometry x="400" y="65" width="70" height="55" as="geometry"/>
                </mxCell>
                <mxCell id="50" value="" style="image;aspect=fixed;html=1;points=[];align=center;fontSize=12;image=img/lib/azure2/management_governance/Metrics.svg;" vertex="1" parent="1">
                    <mxGeometry x="670" y="-89.17" width="110" height="119.17" as="geometry"/>
                </mxCell>
                <mxCell id="55" value="&lt;b&gt;ANALISIS&lt;/b&gt;" style="rounded=1;whiteSpace=wrap;html=1;" vertex="1" parent="1">
                    <mxGeometry x="670" y="140" width="110" height="40" as="geometry"/>
                </mxCell>
                <mxCell id="57" value="&lt;b&gt;&lt;u&gt;BI - BUSSINES INTELIGENCE&lt;/u&gt;&lt;/b&gt;" style="text;html=1;align=center;verticalAlign=middle;resizable=0;points=[];autosize=1;strokeColor=none;fillColor=none;" vertex="1" parent="1">
                    <mxGeometry x="625" y="50" width="190" height="30" as="geometry"/>
                </mxCell>
            </root>
        </mxGraphModel>
    </diagram>
</mxfile>